<?xml version="1.0" encoding="UTF-8" standalone="no"?>
<!-- Created with Inkscape (http://www.inkscape.org/) -->

<svg
   width="120"
   height="50"
   viewBox="0 0 31.75 13.229167"
   version="1.1"
   id="svg1"
   inkscape:version="1.3 (0e150ed6c4, 2023-07-21)"
   sodipodi:docname="Spathmann.svg"
   xmlns:inkscape="http://www.inkscape.org/namespaces/inkscape"
   xmlns:sodipodi="http://sodipodi.sourceforge.net/DTD/sodipodi-0.dtd"
   xmlns="http://www.w3.org/2000/svg"
   xmlns:svg="http://www.w3.org/2000/svg">
  <sodipodi:namedview
     id="namedview1"
     pagecolor="#505050"
     bordercolor="#eeeeee"
     borderopacity="1"
     inkscape:showpageshadow="0"
     inkscape:pageopacity="0"
     inkscape:pagecheckerboard="0"
     inkscape:deskcolor="#505050"
     inkscape:document-units="mm"
     inkscape:zoom="4.1877625"
     inkscape:cx="122.49978"
     inkscape:cy="41.430238"
     inkscape:window-width="1920"
     inkscape:window-height="1027"
     inkscape:window-x="-8"
     inkscape:window-y="-8"
     inkscape:window-maximized="1"
     inkscape:current-layer="layer1" />
  <defs
     id="defs1" />
  <g
     inkscape:label="Ebene 1"
     inkscape:groupmode="layer"
     id="layer1">
    <path
       style="fill:none;stroke:#d7d7d7;stroke-width:0.26458333;stroke-linecap:round;stroke-linejoin:bevel;stroke-dasharray:none;stroke-dashoffset:3.6;stroke-opacity:1"
       d="m 9.1611169,0.44193085 c -1.195649,0.45196958 -2.180296,1.06655765 -3.222186,1.66258765 -0.847001,0.48454 -1.24602,0.625067 -1.832223,1.193652 -0.257273,0.249541 -0.821748,0.912706 -0.379081,1.236283 1.081818,0.790781 4.079049,1.349359 3.853987,2.685718 -0.06925,0.41116 -0.222833,0.826402 -0.505441,1.193653 -0.910019,1.182578 -3.3507,2.2070335 -4.991229,2.8988705 -0.248103,0.104629 -0.499256,0.206469 -0.758161,0.298413 -0.56654595,0.201196 -0.310854,0.03922 -0.50544096,0.170522"
       id="path1" />
    <path
       style="fill:none;stroke:#d7d7d7;stroke-width:0.26458333;stroke-linecap:round;stroke-linejoin:bevel;stroke-dasharray:none;stroke-dashoffset:3.6;stroke-opacity:1"
       d="m 9.5401979,7.8596285 c -0.256675,0.425217 -0.497531,0.854782 -0.758161,1.278913 -0.184294,0.299906 -0.391717,0.593315 -0.568621,0.8952395 -0.707312,1.207174 -0.299448,0.717346 -1.137243,1.961001 -0.154762,0.229734 -0.288895,0.371554 -0.505441,0.554196 -0.01861,0.01569 -0.06828,0.06243 -0.06318,0.04263 0.370841,-1.43878 1.121696,-2.8111145 2.274485,-4.0498925 0.534789,-0.574681 0.613156,-0.675797 1.3899621,-0.93787 0.0076,-0.0026 0.492105,-0.171702 0.568621,-0.04263 0.163105,0.275135 0.12636,0.606391 0.12636,0.895239 0,0.343194 0.166876,1.05186 -0.568621,1.193652 -0.5727481,0.110417 -1.1750431,0.140462 -1.7690431,0.170522 -0.252886,0.0128 -0.513816,0.0032 -0.758161,-0.04263 -0.185357,-0.03474 -0.610415,-0.227583 -0.379081,-0.383674"
       id="path2" />
    <path
       style="fill:none;stroke:#d7d7d7;stroke-width:0.26458333;stroke-linecap:round;stroke-linejoin:bevel;stroke-dasharray:none;stroke-dashoffset:3.6;stroke-opacity:1"
       d="m 12.951924,8.3285635 c -0.620829,-0.410942 -2.617512,1.271603 -1.137242,1.321543 0.729228,0.0246 1.236745,-0.544466 1.642683,-0.852609 0.05866,-0.04453 0.568621,-0.432888 0.568621,-0.468934 0,-0.03177 -0.09694,0.01782 -0.12636,0.04263 -0.142305,0.120024 -0.266061,0.250219 -0.379081,0.383674 -0.114273,0.134935 -1.05782,1.236283 -0.694981,1.236283"
       id="path3" />
    <path
       style="fill:none;stroke:#d7d7d7;stroke-width:0.26458333;stroke-linecap:round;stroke-linejoin:bevel;stroke-dasharray:none;stroke-dashoffset:3.6;stroke-opacity:1"
       d="m 17.248172,3.4260615 c 0,3.489115 0.05485,1.30074 -4.612148,9.3786985 -0.269464,0.466406 0.05751,-1.009112 0.25272,-1.492066 0.126482,-0.312923 0.380154,-0.607499 0.694982,-0.852608 0.248654,-0.193591 0.605424,-0.315449 0.947701,-0.426305 0.193621,-0.06271 0.42274,-0.05207 0.631801,-0.08526 0.122178,-0.0194 1.074063,-0.294795 1.074063,-0.170522"
       id="path4" />
    <path
       style="fill:none;stroke:#d7d7d7;stroke-width:0.26458333;stroke-linecap:round;stroke-linejoin:bevel;stroke-dasharray:none;stroke-dashoffset:3.6;stroke-opacity:1"
       d="m 19.649017,3.2981705 c -1.010882,2.245203 -1.975301,4.500171 -3.032646,6.7356105 -1.408283,2.977392 -0.715725,0.98543 -0.442261,0.639457 0.37086,-0.469192 0.852663,-1.1002405 1.516323,-1.4920665 0.05715,-0.03374 0.128794,-0.05452 0.189541,-0.08526 0.02383,-0.01206 0.04212,-0.05684 0.06318,-0.04263 0.03344,0.02256 -0.03526,0.914793 -0.06318,1.0231315 -0.04814,0.186783 -0.134437,0.36829 -0.189541,0.554195 -0.0083,0.02787 -0.02167,0.109631 0,0.08526 0.515585,-0.579815 -0.275798,-0.02261 0.631801,-0.8099795 0.119206,-0.103414 0.297141,-0.168744 0.442261,-0.255783 0.04452,-0.0267 0.07308,-0.06729 0.12636,-0.08526 0.07535,-0.02542 0,0.113682 0,0.170522 0,0.09947 0.02717,0.200646 0,0.2984135 -0.08967,0.322702 -0.18954,0.305687 -0.18954,0.554196"
       id="path5" />
    <path
       style="fill:none;stroke:#d7d7d7;stroke-width:0.26458333;stroke-linecap:round;stroke-linejoin:bevel;stroke-dasharray:none;stroke-dashoffset:3.6;stroke-opacity:1"
       d="m 20.470358,8.8401285 c -0.44226,0.682087 -2.039511,2.6146095 -1.326782,2.0462615 0.937068,-0.747242 1.193321,-1.7969135 2.021764,-2.6004575 0.215139,-0.208673 0.643119,-0.396187 1.010882,-0.341043 0.338576,0.05077 0.108437,0.633207 0,0.767347 -0.06457,0.07988 -0.166392,0.143253 -0.252721,0.213153 -0.01907,0.01544 -0.09296,0.04263 -0.06318,0.04263 0.04709,0 0.08333,-0.02973 0.12636,-0.04263 0.146565,-0.04395 0.288044,-0.09816 0.442261,-0.127892 1.068572,-0.206003 0.252721,0.357682 0.252721,0.682087"
       id="path6" />
    <path
       style="fill:none;stroke:#d7d7d7;stroke-width:0.26458333;stroke-linecap:round;stroke-linejoin:bevel;stroke-dasharray:none;stroke-dashoffset:3.6;stroke-opacity:1"
       d="m 25.335226,9.1385415 c 0.20537,-0.624153 -2.825477,0.8685605 -2.021762,1.0657615 0.349698,0.0858 1.771763,-0.8633365 2.021762,-1.0657615 0.124301,-0.100646 -0.343815,0.142859 -0.442259,0.255783 -0.03358,0.03851 -0.407342,0.7482785 -0.252722,0.8526085"
       id="path7" />
    <path
       style="fill:none;stroke:#d7d7d7;stroke-width:0.26458333;stroke-linecap:round;stroke-linejoin:bevel;stroke-dasharray:none;stroke-dashoffset:3.6;stroke-opacity:1"
       d="m 26.472469,8.8827595 c 0,0.09947 0.02527,0.200412 0,0.298412 -0.327271,1.2697415 -0.639837,0.469203 1.137242,0 0.446186,-0.117806 -0.06318,0.378725 -0.06318,0.596827"
       id="path8" />
    <path
       style="fill:none;stroke:#d7d7d7;stroke-width:0.26458333;stroke-linecap:round;stroke-linejoin:bevel;stroke-dasharray:none;stroke-dashoffset:3.6;stroke-opacity:1"
       d="m 28.367872,9.2238025 c -0.06318,0.127891 -0.387323,0.364609 -0.189539,0.383674 0.812805,0.07835 2.362721,-0.647586 2.779924,-0.383674 0.468199,0.29617 -0.03392,0.619713 -0.315899,0.8099785"
       id="path9" />
  </g>
</svg>
